HIERARCHY
ROOT Hips
{
	OFFSET 0.000000 0.000000 0.000000
	CHANNELS 6 Xposition Yposition Zposition Xrotation Yrotation Zrotation
	JOINT LeftUpLeg_virtual
	{
		OFFSET 0.000000 0.000000 0.000000
		CHANNELS 3 Xrotation Yrotation Zrotation
		JOINT LeftUpLeg
		{
			OFFSET 11.394100 -6.187798 -0.413800
			CHANNELS 3 Xrotation Yrotation Zrotation
			JOINT LeftLeg
			{
				OFFSET 0.430247 -32.302673 3.732800
				CHANNELS 3 Xrotation Yrotation Zrotation
				JOINT LeftFoot
				{
					OFFSET -0.430247 -48.264931 -6.423300
					CHANNELS 3 Xrotation Yrotation Zrotation
					JOINT LeftToeBase
					{
						OFFSET 4.230900 -16.068199 23.438400
						CHANNELS 3 Xrotation Yrotation Zrotation
						JOINT LeftToe_End
						{
							OFFSET 4.510700 0.695400 19.974600
							CHANNELS 3 Xrotation Yrotation Zrotation
							End Site
							{
								OFFSET 0 0 0
							}
						}
					}
				}
			}
		}
	}
	JOINT RightUpLeg_virtual
	{
		OFFSET 0.000000 0.000000 0.000000
		CHANNELS 3 Xrotation Yrotation Zrotation
		JOINT RightUpLeg
		{
			OFFSET -11.333700 -6.187798 -0.413800
			CHANNELS 3 Xrotation Yrotation Zrotation
			JOINT RightLeg
			{
				OFFSET -0.430392 -32.302628 3.733000
				CHANNELS 3 Xrotation Yrotation Zrotation
				JOINT RightFoot
				{
					OFFSET 0.430392 -48.264973 -6.423500
					CHANNELS 3 Xrotation Yrotation Zrotation
					JOINT RightToeBase
					{
						OFFSET -4.230900 -16.068199 23.438400
						CHANNELS 3 Xrotation Yrotation Zrotation
						JOINT RightToe_End
						{
							OFFSET -4.510700 0.695400 19.974600
							CHANNELS 3 Xrotation Yrotation Zrotation
							End Site
							{
								OFFSET 0 0 0
							}
						}
					}
				}
			}
		}
	}
	JOINT Spine_virtual
	{
		OFFSET 0.000000 0.000000 0.000000
		CHANNELS 3 Xrotation Yrotation Zrotation
		JOINT Spine
		{
			OFFSET -0.002400 12.777504 0.315300
			CHANNELS 3 Xrotation Yrotation Zrotation
			JOINT Spine1
			{
				OFFSET -0.002067 5.816869 0.032633
				CHANNELS 3 Xrotation Yrotation Zrotation
				JOINT Spine1_split
				{
					OFFSET -0.002067 5.816869 0.032633
					CHANNELS 3 Xrotation Yrotation Zrotation
					JOINT Spine2
					{
						OFFSET -0.002067 5.816869 0.032633
						CHANNELS 3 Xrotation Yrotation Zrotation
						JOINT Neck_virtual
						{
							OFFSET 0.000000 0.000000 0.000000
							CHANNELS 3 Xrotation Yrotation Zrotation
							JOINT Neck
							{
								OFFSET -0.003700 21.199493 -0.826900
								CHANNELS 3 Xrotation Yrotation Zrotation
								JOINT Head
								{
									OFFSET 0.000000 20.442200 4.834800
									CHANNELS 3 Xrotation Yrotation Zrotation
									JOINT HeadTop_End
									{
										OFFSET 0.000000 34.668396 4.968400
										CHANNELS 3 Xrotation Yrotation Zrotation
										End Site
										{
											OFFSET 0 0 0
										}
									}
								}
							}
						}
						JOINT LeftShoulder_virtual
						{
							OFFSET 0.000000 0.000000 0.000000
							CHANNELS 3 Xrotation Yrotation Zrotation
							JOINT LeftShoulder
							{
								OFFSET 3.288150 8.794197 -1.372250
								CHANNELS 3 Xrotation Yrotation Zrotation
								JOINT LeftShoulder_split
								{
									OFFSET 3.288150 8.794197 -1.372250
									CHANNELS 3 Xrotation Yrotation Zrotation
									JOINT LeftArm
									{
										OFFSET 11.953299 -2.279007 -0.146200
										CHANNELS 3 Xrotation Yrotation Zrotation
										JOINT LeftForeArm
										{
											OFFSET 18.448900 0.000000 0.000000
											CHANNELS 3 Xrotation Yrotation Zrotation
											JOINT LeftHand
											{
												OFFSET 29.527798 0.000000 0.000000
												CHANNELS 3 Xrotation Yrotation Zrotation
												End Site
												{
													OFFSET 0 0 0
												}
											}
										}
									}
								}
							}
						}
						JOINT RightShoulder_virtual
						{
							OFFSET 0.000000 0.000000 0.000000
							CHANNELS 3 Xrotation Yrotation Zrotation
							JOINT RightShoulder
							{
								OFFSET -3.249400 8.794197 -1.372250
								CHANNELS 3 Xrotation Yrotation Zrotation
								JOINT RightShoulder_split
								{
									OFFSET -3.249400 8.794197 -1.372250
									CHANNELS 3 Xrotation Yrotation Zrotation
									JOINT RightArm
									{
										OFFSET -11.953299 -2.279007 -0.146200
										CHANNELS 3 Xrotation Yrotation Zrotation
										JOINT RightForeArm
										{
											OFFSET -18.448900 0.000000 0.000000
											CHANNELS 3 Xrotation Yrotation Zrotation
											JOINT RightHand
											{
												OFFSET -29.527802 0.000000 0.000000
												CHANNELS 3 Xrotation Yrotation Zrotation
												End Site
												{
													OFFSET 0 0 0
												}
											}
										}
									}
								}
							}
						}
					}
				}
			}
		}
	}
}
MOTION
Frames: 10
Frame Time: 0.03333333
-0.844385 85.056877 -0.431892 0.000000 0.000000 0.000000 1.568154 -62.348207 4.881515 -37.898667 3.587204 27.365897 42.752347 -6.130465 -6.832527 -4.109496 -2.191790 -7.934028 -0.325569 0.763127 0.606230 0.000000 0.000000 0.000000 0.253191 -61.668125 4.430970 -36.904280 -5.886859 -27.664674 50.028475 6.173347 -6.293775 -16.698943 0.687595 24.165643 4.487878 -0.178801 -0.332155 0.000000 0.000000 0.000000 0.757472 -60.130356 4.480885 11.463075 0.517930 -2.357421 9.064436 -0.836781 -5.521516 1.182195 -4.483233 1.337843 0.000000 0.000000 0.000000 9.996769 -0.541174 -5.476415 -18.669098 19.230893 13.251604 -3.600802 26.716237 -2.316607 0.000000 0.000000 0.000000 9.589052 -0.825317 -5.069723 -5.827055 -10.842152 -4.149402 -0.256276 -3.227266 -1.335634 -18.604433 8.292797 -31.507693 3.903375 -38.158894 2.805609 0.000000 0.000000 0.000000 9.206551 -0.907360 -5.512865 -6.024021 7.511616 3.431943 1.075409 0.297631 1.864171 -40.265130 -18.703619 34.135390 -161.237380 64.728227 161.668597 0.000000 0.000000 0.000000 
-0.921589 84.964470 -0.157387 0.000000 0.000000 0.000000 1.323721 -62.596334 4.588395 -37.935151 3.897749 27.622422 43.115870 -6.391393 -6.832787 -4.356732 -2.295581 -7.992801 -0.549491 0.765065 0.725847 0.000000 0.000000 0.000000 0.080477 -61.594796 4.175967 -36.575045 -5.965442 -27.456865 50.233982 5.946968 -6.210125 -16.771582 0.509725 23.760922 4.143696 -0.143095 -0.276198 0.000000 0.000000 0.000000 0.189903 -59.898259 3.897606 11.310772 0.436457 -2.411014 8.807148 -0.826235 -5.596467 0.962696 -3.473966 1.087236 0.000000 0.000000 0.000000 9.219100 -0.534358 -5.580838 -18.055120 19.014497 12.787274 -2.494364 26.090935 -1.862610 0.000000 0.000000 0.000000 9.320293 -0.836893 -5.248136 -5.708698 -10.698905 -4.444524 -0.587228 -2.383075 -1.704630 -18.686846 7.711478 -31.700096 4.124308 -38.472786 3.002031 0.000000 0.000000 0.000000 9.030555 -0.856544 -5.642111 -5.974591 7.514893 3.925497 1.321733 0.657821 2.607793 -38.823745 -18.753790 34.996889 -159.219974 65.995105 159.704603 0.000000 0.000000 0.000000 
-1.081794 85.022705 0.068645 0.000000 0.000000 0.000000 0.770770 -62.872465 3.798806 -38.057100 4.450766 28.150749 43.637327 -6.823413 -6.781840 -4.749137 -2.467019 -8.057058 -0.667036 0.803322 0.761292 0.000000 0.000000 0.000000 -0.388130 -61.566280 3.435037 -35.892323 -6.267477 -27.052366 50.012254 5.737712 -6.117349 -16.443580 0.354246 23.520988 3.504667 -0.139458 -0.248313 0.000000 0.000000 0.000000 -0.440153 -59.631451 3.007334 10.933060 0.468771 -2.384549 8.149390 -0.666443 -5.741097 0.682059 -2.593695 0.743652 0.000000 0.000000 0.000000 7.950557 -0.353649 -5.787407 -16.852269 18.467833 12.412680 0.089440 23.645070 -0.326940 0.000000 0.000000 0.000000 8.651681 -0.720594 -5.494191 -5.681318 -10.444797 -4.791120 -1.357748 -1.573629 -1.893691 -18.796042 6.817714 -32.310165 3.315569 -38.972465 2.376321 0.000000 0.000000 0.000000 8.434969 -0.615859 -5.773783 -5.871801 7.285475 4.742855 1.585270 1.074366 2.282982 -37.099436 -17.956574 36.377984 -155.540141 68.420956 156.032256 0.000000 0.000000 0.000000 
-1.260306 85.263290 0.158932 0.000000 0.000000 0.000000 0.045709 -63.080772 2.698125 -38.146340 5.126460 28.803478 43.948036 -7.294474 -6.690825 -5.031793 -2.648736 -8.131436 -0.791645 0.868081 0.706209 0.000000 0.000000 0.000000 -0.919638 -61.568500 2.465189 -34.959866 -6.782634 -26.518413 49.099952 5.576428 -6.018494 -15.752988 0.265214 23.438414 2.822047 -0.151580 -0.225928 0.000000 0.000000 0.000000 -0.984033 -59.433096 2.033117 10.396261 0.619690 -2.293170 7.226475 -0.378322 -5.905549 0.454738 -1.699314 0.454318 0.000000 0.000000 0.000000 6.474169 -0.003346 -6.004778 -15.526092 17.806510 12.100103 3.368278 20.149557 1.945350 0.000000 0.000000 0.000000 7.693714 -0.474391 -5.739376 -5.728043 -10.088451 -5.071160 -2.300193 -0.906197 -1.837520 -18.865317 5.781111 -33.189812 1.913720 -39.940402 1.206652 0.000000 0.000000 0.000000 7.503452 -0.243286 -5.871611 -5.676994 6.811739 5.602193 1.833524 1.202323 1.308881 -35.640224 -16.541649 38.114020 -149.974726 71.242001 150.416379 0.000000 0.000000 0.000000 
-1.388002 85.699654 0.180061 0.000000 0.000000 0.000000 -0.695702 -63.272700 1.513639 -38.130713 5.822621 29.452558 43.736006 -7.655513 -6.599403 -4.931596 -2.791239 -8.151048 -1.013899 0.928727 0.603329 0.000000 0.000000 0.000000 -1.386592 -61.602637 1.484504 -33.944411 -7.474235 -25.927434 47.417335 5.446322 -5.911327 -14.706442 0.274283 23.446381 2.454874 -0.153632 -0.186321 0.000000 0.000000 0.000000 -1.247404 -59.391999 1.223929 9.800580 0.870549 -2.181283 6.197869 -0.022403 -6.024153 0.406991 -1.201960 0.503736 0.000000 0.000000 0.000000 5.086599 0.424355 -6.159629 -14.816024 17.262999 11.665675 6.145790 16.597361 4.361796 0.000000 0.000000 0.000000 6.634058 -0.147705 -5.876203 -5.792308 -9.665710 -5.063533 -3.186441 -0.188152 -1.960316 -18.808386 4.886275 -34.208968 0.552683 -41.186802 0.002234 0.000000 0.000000 0.000000 6.403760 0.183603 -5.881881 -5.430395 6.204457 6.195048 1.999034 1.286325 0.473899 -34.574144 -14.821551 40.085957 -142.342973 73.936402 142.666082 0.000000 0.000000 0.000000 
-1.433549 86.315247 0.127529 0.000000 0.000000 0.000000 -1.189300 -63.473549 0.556061 -38.016915 6.431360 30.007487 42.926708 -7.839607 -6.524374 -4.326541 -2.882165 -8.069883 -1.177693 0.964027 0.461935 0.000000 0.000000 0.000000 -1.658672 -61.751009 0.681152 -33.088281 -8.254411 -25.342495 45.125619 5.312751 -5.779570 -13.366807 0.351442 23.484274 2.526314 -0.144090 -0.102493 0.000000 0.000000 0.000000 -1.250240 -59.616937 0.656361 9.277148 1.161851 -2.092796 5.223562 0.332333 -6.056185 0.318129 -1.208684 0.977476 0.000000 0.000000 0.000000 4.066275 0.848159 -6.179393 -15.289010 17.084048 10.980241 7.487746 14.022861 6.030125 0.000000 0.000000 0.000000 5.703081 0.184172 -5.853465 -5.823648 -9.175882 -4.594775 -3.734928 0.554400 -2.179475 -18.587771 4.041942 -35.378553 -0.147946 -42.509270 -0.742897 0.000000 0.000000 0.000000 5.351618 0.566768 -5.802134 -5.161643 5.604077 6.318660 2.173469 1.437121 0.028375 -33.945764 -13.213105 42.090556 -132.887409 76.116147 133.043001 0.000000 0.000000 0.000000 
-1.387195 86.987328 -0.011616 0.000000 0.000000 0.000000 -1.447229 -63.722175 -0.136747 -37.855115 6.980835 30.526567 41.765121 -7.930882 -6.484538 -3.352333 -2.964807 -7.898089 -1.191336 0.963562 0.306435 0.000000 0.000000 0.000000 -1.814458 -62.060205 0.083224 -32.563159 -8.970963 -24.818961 42.763514 5.205762 -5.652847 -11.908777 0.495640 23.473410 2.846900 -0.115236 -0.036288 0.000000 0.000000 0.000000 -1.138656 -59.978910 0.275633 8.925880 1.454154 -2.063439 4.487437 0.634038 -5.992406 0.268256 -1.516182 1.374594 0.000000 0.000000 0.000000 3.557241 1.167087 -6.049766 -17.137839 17.420992 10.020837 7.088116 12.942128 6.316552 0.000000 0.000000 0.000000 5.052536 0.471495 -5.677962 -5.813697 -8.660155 -3.751656 -4.039713 1.175489 -2.636402 -18.231810 3.043832 -36.530427 0.218592 -43.687731 -0.662738 0.000000 0.000000 0.000000 4.519933 0.847879 -5.659683 -4.896120 5.248577 5.913939 2.338894 1.497430 0.232423 -33.578279 -12.055899 43.842725 -121.986796 77.681012 121.944312 0.000000 0.000000 0.000000 
-1.237816 87.546478 -0.182884 0.000000 0.000000 0.000000 -1.603142 -63.992889 -0.666704 -37.785068 7.450731 31.045539 40.627864 -8.014618 -6.476898 -2.439127 -3.066460 -7.657716 -1.036184 0.934658 0.184830 0.000000 0.000000 0.000000 -2.030343 -62.514959 -0.452347 -32.450427 -9.481908 -24.358142 40.985855 5.106237 -5.558648 -10.556742 0.655805 23.401999 3.155205 -0.077153 -0.035011 0.000000 0.000000 0.000000 -1.068993 -60.437038 -0.068249 8.808134 1.698282 -2.083064 4.105448 0.814581 -5.849576 0.493918 -2.014464 1.579184 0.000000 0.000000 0.000000 3.561637 1.293686 -5.811761 -20.125321 18.250979 8.941700 5.075732 13.450073 5.183519 0.000000 0.000000 0.000000 4.818298 0.641375 -5.394234 -5.748201 -8.185511 -2.602405 -4.241698 1.655387 -3.279202 -18.008842 1.943170 -37.441434 1.465623 -44.220810 0.215215 0.000000 0.000000 0.000000 4.144070 0.984363 -5.482787 -4.670399 5.332125 5.024797 2.408237 1.612099 0.853047 -33.355195 -11.661061 44.885182 -112.213690 78.586442 111.955338 0.000000 0.000000 0.000000 
-0.989410 87.827469 -0.446133 0.000000 0.000000 0.000000 -1.797073 -64.214898 -1.153285 -37.930581 7.750790 31.549289 40.010814 -8.205187 -6.475464 -1.970615 -3.214131 -7.470928 -0.792508 0.892286 0.143073 0.000000 0.000000 0.000000 -2.431265 -62.901869 -1.076173 -32.681618 -9.670919 -23.922316 40.324477 5.021004 -5.541573 -9.647467 0.751768 23.224009 3.278338 -0.049826 -0.091817 0.000000 0.000000 0.000000 -1.318329 -60.950286 -0.588247 8.922740 1.855928 -2.113902 4.110852 0.848852 -5.678857 0.832930 -2.515685 1.561890 0.000000 0.000000 0.000000 4.004311 1.236294 -5.516229 -23.580429 19.424529 8.118123 2.111203 15.301055 3.051062 0.000000 0.000000 0.000000 5.027050 0.683467 -5.091287 -5.645252 -7.821598 -1.363326 -4.215273 1.753839 -3.732902 -18.193720 0.776879 -37.975927 3.051168 -44.070587 1.454223 0.000000 0.000000 0.000000 4.270575 0.961394 -5.329235 -4.471603 5.856292 3.829244 2.452443 1.744452 1.509110 -33.344912 -12.279647 44.848518 -108.527908 78.901048 108.061741 0.000000 0.000000 0.000000 
-0.670597 87.737549 -0.755238 0.000000 0.000000 0.000000 -2.255610 -64.350771 -1.810532 -38.289781 7.835964 32.026422 40.267169 -8.556092 -6.473686 -2.059530 -3.420540 -7.387471 -0.684800 0.840861 0.209674 0.000000 0.000000 0.000000 -3.117765 -63.129622 -1.885863 -33.129706 -9.489786 -23.506362 40.928727 4.978163 -5.640788 -9.368818 0.783232 22.941038 3.202472 -0.041515 -0.177041 0.000000 0.000000 0.000000 -2.025566 -61.365425 -1.383249 9.199260 1.926020 -2.101869 4.456296 0.746867 -5.526794 1.077075 -2.771526 1.292000 0.000000 0.000000 0.000000 4.728424 1.048790 -5.249040 -26.767216 20.634039 7.794567 -0.860353 18.098931 0.643778 0.000000 0.000000 0.000000 5.578972 0.623130 -4.839720 -5.543842 -7.711412 -0.341003 -4.174826 1.537659 -3.953058 -18.772502 -0.213939 -37.952530 4.413261 -43.750189 2.585600 0.000000 0.000000 0.000000 4.780446 0.811774 -5.223139 -4.308184 6.780647 2.600105 2.376531 1.769152 1.977157 -33.670756 -13.979013 43.744462 -114.322504 78.673766 113.726823 0.000000 0.000000 0.000000 
